{
  "accessors": [
    {
      "bufferView": 2,
      "componentType": 5126,
      "count": 65532,
      "max": [
        -4.4191169738769531,
        -4.1852211952209473,
        -3.2603271007537842
      ],
      "min": [
        -5.794501781463623,
        -5.3898711204528809,
        -4.3279857635498047
      ],
      "type": "VEC3"
    },
    {
      "bufferView": 2,
      "byteOffset": 786384,
      "componentType": 5126,
      "count": 65532,
      "max": [
        0.99998730421066284,
        0.99999517202377319,
        0.99908649921417236
      ],
      "min": [
        -0.99999737739562988,
        -0.99999994039535522,
        -0.99999415874481201
      ],
      "type": "VEC3"
    },
    {
      "bufferView": 3,
      "componentType": 5126,
      "count": 65532,
      "max": [
        0.99999982118606567,
        0.99999856948852539,
        0.99999994039535522,
        1
      ],
      "min": [
        -0.99992400407791138,
        -0.99999797344207764,
        -0.99999654293060303,
        -1
      ],
      "type": "VEC4"
    },
    {
      "bufferView": 1,
      "componentType": 5126,
      "count": 65532,
      "max": [
        0.99808400869369507,
        0.99960100650787354
      ],
      "min": [
        0.0035069999285042286,
        0.0031999999191612005
      ],
      "type": "VEC2"
    },
    {
      "bufferView": 0,
      "componentType": 5125,
      "count": 338121,
      "max": [
        65531
      ],
      "min": [
        0
      ],
      "type": "SCALAR"
    },
    {
      "bufferView": 2,
      "byteOffset": 1572768,
      "componentType": 5126,
      "count": 65532,
      "max": [
        -4.3157610893249512,
        -3.8682548999786377,
        -1.1778500080108643
      ],
      "min": [
        -5.8919491767883301,
        -5.3847188949584961,
        -3.9282190799713135
      ],
      "type": "VEC3"
    },
    {
      "bufferView": 2,
      "byteOffset": 2359152,
      "componentType": 5126,
      "count": 65532,
      "max": [
        0.99991059303283691,
        0.99999517202377319,
        0.99993342161178589
      ],
      "min": [
        -0.99998944997787476,
        -0.99991780519485474,
        -0.99996048212051392
      ],
      "type": "VEC3"
    },
    {
      "bufferView": 3,
      "byteOffset": 1048512,
      "componentType": 5126,
      "count": 65532,
      "max": [
        0.99977540969848633,
        0.99997979402542114,
        0.99999839067459106,
        1
      ],
      "min": [
        -0.99991708993911743,
        -0.99983066320419312,
        -0.99999821186065674,
        -1
      ],
      "type": "VEC4"
    },
    {
      "bufferView": 1,
      "byteOffset": 524256,
      "componentType": 5126,
      "count": 65532,
      "max": [
        0.99655997753143311,
        0.9995880126953125
      ],
      "min": [
        0.006149000022560358,
        0.0044030002318322659
      ],
      "type": "VEC2"
    },
    {
      "bufferView": 0,
      "byteOffset": 1352484,
      "componentType": 5125,
      "count": 329445,
      "max": [
        65531
      ],
      "min": [
        0
      ],
      "type": "SCALAR"
    },
    {
      "bufferView": 2,
      "byteOffset": 3145536,
      "componentType": 5126,
      "count": 65532,
      "max": [
        -3.5489509105682373,
        -3.7966880798339844,
        -0.98264402151107788
      ],
      "min": [
        -5.8740139007568359,
        -5.4380989074707031,
        -3.3211040496826172
      ],
      "type": "VEC3"
    },
    {
      "bufferView": 2,
      "byteOffset": 3931920,
      "componentType": 5126,
      "count": 65532,
      "max": [
        0.99992859363555908,
        0.99998027086257935,
        1
      ],
      "min": [
        -1,
        -0.99999034404754639,
        -0.99978142976760864
      ],
      "type": "VEC3"
    },
    {
      "bufferView": 3,
      "byteOffset": 2097024,
      "componentType": 5126,
      "count": 65532,
      "max": [
        0.99998301267623901,
        0.9999927282333374,
        0.99998331069946289,
        1
      ],
      "min": [
        -0.99995583295822144,
        -0.99990415573120117,
        -0.99996715784072876,
        -1
      ],
      "type": "VEC4"
    },
    {
      "bufferView": 1,
      "byteOffset": 1048512,
      "componentType": 5126,
      "count": 65532,
      "max": [
        0.99651497602462769,
        0.9995419979095459
      ],
      "min": [
        0.00040099999750964344,
        0.0043540000915527344
      ],
      "type": "VEC2"
    },
    {
      "bufferView": 0,
      "byteOffset": 2670264,
      "componentType": 5125,
      "count": 324612,
      "max": [
        65531
      ],
      "min": [
        0
      ],
      "type": "SCALAR"
    },
    {
      "bufferView": 2,
      "byteOffset": 4718304,
      "componentType": 5126,
      "count": 65532,
      "max": [
        -3.5398039817810059,
        -3.7956531047821045,
        -1.0403009653091431
      ],
      "min": [
        -5.9217591285705566,
        -5.3929228782653809,
        -2.782357931137085
      ],
      "type": "VEC3"
    },
    {
      "bufferView": 2,
      "byteOffset": 5504688,
      "componentType": 5126,
      "count": 65532,
      "max": [
        1,
        0.9999922513961792,
        0.99999916553497314
      ],
      "min": [
        -0.99999737739562988,
        -0.9999968409538269,
        -0.99981474876403809
      ],
      "type": "VEC3"
    },
    {
      "bufferView": 3,
      "byteOffset": 3145536,
      "componentType": 5126,
      "count": 65532,
      "max": [
        0.99997282028198242,
        0.99992895126342773,
        1,
        1
      ],
      "min": [
        -0.99999916553497314,
        -0.9999854564666748,
        -0.99999111890792847,
        -1
      ],
      "type": "VEC4"
    },
    {
      "bufferView": 1,
      "byteOffset": 1572768,
      "componentType": 5126,
      "count": 65532,
      "max": [
        0.99689698219299316,
        0.99949198961257935
      ],
      "min": [
        0.0078769996762275696,
        0.0038499999791383743
      ],
      "type": "VEC2"
    },
    {
      "bufferView": 0,
      "byteOffset": 3968712,
      "componentType": 5125,
      "count": 317682,
      "max": [
        65531
      ],
      "min": [
        0
      ],
      "type": "SCALAR"
    },
    {
      "bufferView": 2,
      "byteOffset": 6291072,
      "componentType": 5126,
      "count": 65532,
      "max": [
        -3.5411150455474854,
        -3.7956531047821045,
        -0.96634602546691895
      ],
      "min": [
        -5.9222688674926758,
        -5.2406067848205566,
        -2.1195569038391113
      ],
      "type": "VEC3"
    },
    {
      "bufferView": 2,
      "byteOffset": 7077456,
      "componentType": 5126,
      "count": 65532,
      "max": [
        0.99999868869781494,
        0.99999970197677612,
        0.99988597631454468
      ],
      "min": [
        -0.9999774694442749,
        -1,
        -0.99999547004699707
      ],
      "type": "VEC3"
    },
    {
      "bufferView": 3,
      "byteOffset": 4194048,
      "componentType": 5126,
      "count": 65532,
      "max": [
        0.99998337030410767,
        0.99997192621231079,
        0.99999982118606567,
        1
      ],
      "min": [
        -0.99998754262924194,
        -0.99984943866729736,
        -0.99996781349182129,
        -1
      ],
      "type": "VEC4"
    },
    {
      "bufferView": 1,
      "byteOffset": 2097024,
      "componentType": 5126,
      "count": 65532,
      "max": [
        0.994454026222229,
        0.99994099140167236
      ],
      "min": [
        0.0037960000336170197,
        0.0033879999537020922
      ],
      "type": "VEC2"
    },
    {
      "bufferView": 0,
      "byteOffset": 5239440,
      "componentType": 5125,
      "count": 318069,
      "max": [
        65531
      ],
      "min": [
        0
      ],
      "type": "SCALAR"
    },
    {
      "bufferView": 2,
      "byteOffset": 7863840,
      "componentType": 5126,
      "count": 65532,
      "max": [
        -3.5470349788665771,
        -3.873405933380127,
        -0.58833998441696167
      ],
      "min": [
        -5.8864421844482422,
        -5.7681031227111816,
        -1.6039190292358398
      ],
      "type": "VEC3"
    },
    {
      "bufferView": 2,
      "byteOffset": 8650224,
      "componentType": 5126,
      "count": 65532,
      "max": [
        0.9999956488609314,
        0.99980765581130981,
        0.99999302625656128
      ],
      "min": [
        -0.99994349479675293,
        -0.99990493059158325,
        -0.99999350309371948
      ],
      "type": "VEC3"
    },
    {
      "bufferView": 3,
      "byteOffset": 5242560,
      "componentType": 5126,
      "count": 65532,
      "max": [
        0.99994015693664551,
        0.999958336353302,
        0.9999881386756897,
        1
      ],
      "min": [
        -0.99994605779647827,
        -0.9995272159576416,
        -0.99997740983963013,
        -1
      ],
      "type": "VEC4"
    },
    {
      "bufferView": 1,
      "byteOffset": 2621280,
      "componentType": 5126,
      "count": 65532,
      "max": [
        0.99203300476074219,
        0.99948501586914062
      ],
      "min": [
        0.0035560000687837601,
        0.0037360000424087048
      ],
      "type": "VEC2"
    },
    {
      "bufferView": 0,
      "byteOffset": 6511716,
      "componentType": 5125,
      "count": 327063,
      "max": [
        65531
      ],
      "min": [
        0
      ],
      "type": "SCALAR"
    },
    {
      "bufferView": 2,
      "byteOffset": 9436608,
      "componentType": 5126,
      "count": 14950,
      "max": [
        -4.1940469741821289,
        -4.2024078369140625,
        -0.54335200786590576
      ],
      "min": [
        -5.694025993347168,
        -5.7386269569396973,
        -4.3279857635498047
      ],
      "type": "VEC3"
    },
    {
      "bufferView": 2,
      "byteOffset": 9616008,
      "componentType": 5126,
      "count": 14950,
      "max": [
        0.99876296520233154,
        0.99973022937774658,
        0.9999808669090271
      ],
      "min": [
        -0.99985706806182861,
        -1,
        -1
      ],
      "type": "VEC3"
    },
    {
      "bufferView": 3,
      "byteOffset": 6291072,
      "componentType": 5126,
      "count": 14950,
      "max": [
        0.98959416151046753,
        0.99882465600967407,
        0.99717676639556885,
        1
      ],
      "min": [
        -0.99933171272277832,
        -0.98906129598617554,
        -0.99749630689620972,
        -1
      ],
      "type": "VEC4"
    },
    {
      "bufferView": 1,
      "byteOffset": 3145536,
      "componentType": 5126,
      "count": 14950,
      "max": [
        0.98953598737716675,
        0.9995269775390625
      ],
      "min": [
        0,
        0
      ],
      "type": "VEC2"
    },
    {
      "bufferView": 0,
      "byteOffset": 7819968,
      "componentType": 5125,
      "count": 70314,
      "max": [
        14949
      ],
      "min": [
        0
      ],
      "type": "SCALAR"
    }
  ],
  "asset": {
    "extras": {
      "author": "Santa Cruz Museum of Art and History (https://sketchfab.com/santacruzmah)",
      "license": "CC-BY-4.0 (http://creativecommons.org/licenses/by/4.0/)",
      "source": "https://sketchfab.com/models/978bdcc429f840a6a7ee94a44217556e",
      "title": "Boxing Glove"
    },
    "generator": "Sketchfab-3.18.7",
    "version": "2.0"
  },
  "bufferViews": [
    {
      "buffer": 0,
      "byteLength": 8101224,
      "byteOffset": 0,
      "name": "floatBufferViews",
      "target": 34963
    },
    {
      "buffer": 0,
      "byteLength": 3265136,
      "byteOffset": 8101224,
      "byteStride": 8,
      "name": "floatBufferViews",
      "target": 34962
    },
    {
      "buffer": 0,
      "byteLength": 9795408,
      "byteOffset": 11366360,
      "byteStride": 12,
      "name": "floatBufferViews",
      "target": 34962
    },
    {
      "buffer": 0,
      "byteLength": 6530272,
      "byteOffset": 21161768,
      "byteStride": 16,
      "name": "floatBufferViews",
      "target": 34962
    }
  ],
  "buffers": [
    {
      "byteLength": 27692040,
      "uri": "scene.bin"
    }
  ],
  "extensionsUsed": [
    "KHR_materials_unlit"
  ],
  "images": [
    {
      "uri": "textures/material_0_baseColor.jpeg"
    }
  ],
  "materials": [
    {
      "doubleSided": true,
      "emissiveFactor": [
        0,
        0,
        0
      ],
      "extensions": {
        "KHR_materials_unlit": {}
      },
      "name": "material_0",
      "pbrMetallicRoughness": {
        "baseColorFactor": [
          1,
          1,
          1,
          1
        ],
        "baseColorTexture": {
          "index": 0,
          "texCoord": 0
        },
        "metallicFactor": 0,
        "roughnessFactor": 1
      }
    }
  ],
  "meshes": [
    {
      "primitives": [
        {
          "attributes": {
            "NORMAL": 1,
            "POSITION": 0,
            "TANGENT": 2,
            "TEXCOORD_0": 3
          },
          "indices": 4,
          "material": 0,
          "mode": 4
        }
      ]
    },
    {
      "primitives": [
        {
          "attributes": {
            "NORMAL": 6,
            "POSITION": 5,
            "TANGENT": 7,
            "TEXCOORD_0": 8
          },
          "indices": 9,
          "material": 0,
          "mode": 4
        }
      ]
    },
    {
      "primitives": [
        {
          "attributes": {
            "NORMAL": 11,
            "POSITION": 10,
            "TANGENT": 12,
            "TEXCOORD_0": 13
          },
          "indices": 14,
          "material": 0,
          "mode": 4
        }
      ]
    },
    {
      "primitives": [
        {
          "attributes": {
            "NORMAL": 16,
            "POSITION": 15,
            "TANGENT": 17,
            "TEXCOORD_0": 18
          },
          "indices": 19,
          "material": 0,
          "mode": 4
        }
      ]
    },
    {
      "primitives": [
        {
          "attributes": {
            "NORMAL": 21,
            "POSITION": 20,
            "TANGENT": 22,
            "TEXCOORD_0": 23
          },
          "indices": 24,
          "material": 0,
          "mode": 4
        }
      ]
    },
    {
      "primitives": [
        {
          "attributes": {
            "NORMAL": 26,
            "POSITION": 25,
            "TANGENT": 27,
            "TEXCOORD_0": 28
          },
          "indices": 29,
          "material": 0,
          "mode": 4
        }
      ]
    },
    {
      "primitives": [
        {
          "attributes": {
            "NORMAL": 31,
            "POSITION": 30,
            "TANGENT": 32,
            "TEXCOORD_0": 33
          },
          "indices": 34,
          "material": 0,
          "mode": 4
        }
      ]
    }
  ],
  "nodes": [
    {
      "children": [
        1
      ],
      "name": "RootNode (gltf orientation matrix)",
      "rotation": [
        -0.70710678118654746,
        -0,
        -0,
        0.70710678118654757
      ]
    },
    {
      "children": [
        2
      ],
      "name": "RootNode (model correction matrix)"
    },
    {
      "children": [
        3,
        4,
        5,
        6,
        7,
        8,
        9
      ],
      "name": "model.obj.cleaner.gles"
    },
    {
      "mesh": 0,
      "name": ""
    },
    {
      "mesh": 1,
      "name": ""
    },
    {
      "mesh": 2,
      "name": ""
    },
    {
      "mesh": 3,
      "name": ""
    },
    {
      "mesh": 4,
      "name": ""
    },
    {
      "mesh": 5,
      "name": ""
    },
    {
      "mesh": 6,
      "name": ""
    }
  ],
  "samplers": [
    {
      "magFilter": 9729,
      "minFilter": 9987,
      "wrapS": 10497,
      "wrapT": 10497
    }
  ],
  "scene": 0,
  "scenes": [
    {
      "name": "OSG_Scene",
      "nodes": [
        0
      ]
    }
  ],
  "textures": [
    {
      "sampler": 0,
      "source": 0
    }
  ]
}

